<svg width="49" height="48" viewBox="0 0 49 48" fill="none" xmlns="http://www.w3.org/2000/svg">
<path d="M24.5 27C26.1569 27 27.5 25.6569 27.5 24C27.5 22.3431 26.1569 21 24.5 21C22.8431 21 21.5 22.3431 21.5 24C21.5 25.6569 22.8431 27 24.5 27Z" fill="black"/>
<path d="M45.5 25.5V22.5H36.245L40.115 18.615L38 16.5L30.5 24L38 31.5L40.115 29.385L36.245 25.5H45.5ZM23 35.745V45H26V35.745L29.885 39.615L32 37.5L24.5 30L17 37.5L19.115 39.615L23 35.745ZM11 16.5L8.885 18.615L12.755 22.5H3.5V25.5H12.755L8.885 29.385L11 31.5L18.5 24L11 16.5ZM26 12.255V3H23V12.255L19.115 8.385L17 10.5L24.5 18L32 10.5L29.885 8.385L26 12.255Z" fill="black"/>
</svg>
