<svg width="48" height="48" viewBox="0 0 48 48" fill="none" xmlns="http://www.w3.org/2000/svg">
<path d="M34.9121 24C34.9121 30.0266 30.0266 34.9121 24 34.9121C17.9734 34.9121 13.0879 30.0266 13.0879 24C13.0879 17.9734 17.9734 13.0879 24 13.0879C30.0266 13.0879 34.9121 17.9734 34.9121 24ZM26.8716 5.79609C34.7378 7.03228 40.9678 13.2623 42.2039 21.1283H48C46.6875 10.0911 37.9089 1.31259 26.8716 0V5.79609ZM5.79609 21.1284C7.03219 13.2622 13.2622 7.03228 21.1283 5.79609V0C10.091 1.3125 1.31259 10.0911 0 21.1284H5.79609ZM42.2039 26.8716C40.9678 34.7378 34.7378 40.9678 26.8716 42.204V48C37.9089 46.6875 46.6875 37.9089 48 26.8716H42.2039ZM21.1284 42.204C13.2622 40.9678 7.03219 34.7378 5.79609 26.8716H0C1.3125 37.9089 10.091 46.6875 21.1284 48V42.2039V42.204Z" fill="#903B13"/>
</svg>
