<svg width="49" height="48" viewBox="0 0 49 48" fill="none" xmlns="http://www.w3.org/2000/svg">
<path d="M28.066 30.3438L32.308 26.1018L44.2999 38.0938L40.0579 42.3358L28.066 30.3438ZM35.5 19.9998C39.36 19.9998 42.5 16.8598 42.5 12.9998C42.5 11.8398 42.18 10.7598 41.68 9.79982L36.2799 15.1998L33.2999 12.2198L38.7 6.81982C37.74 6.31982 36.66 5.99982 35.5 5.99982C31.6399 5.99982 28.5 9.13982 28.5 12.9998C28.5 13.8198 28.66 14.5998 28.92 15.3198L25.22 19.0198L21.66 15.4598L23.08 14.0398L20.26 11.2198L24.5 6.97982C23.3749 5.85621 21.85 5.2251 20.26 5.2251C18.6699 5.2251 17.145 5.85621 16.02 6.97982L8.93995 14.0598L11.76 16.8798H6.11995L4.69995 18.2998L11.78 25.3798L13.2 23.9598V18.2998L16.02 21.1198L17.44 19.6998L21 23.2598L6.17995 38.0798L10.42 42.3198L33.18 19.5798C33.9 19.8398 34.68 19.9998 35.5 19.9998Z" fill="black"/>
</svg>
