<svg width="300" height="71" viewBox="0 0 300 71" fill="none" xmlns="http://www.w3.org/2000/svg">
<path d="M97.624 17.928C97.624 15.976 97.272 14.44 96.568 13.32C95.864 12.168 94.952 11.304 93.832 10.728C92.712 10.152 91.432 9.784 89.992 9.624C88.552 9.464 87.096 9.384 85.624 9.384H81.736C81.256 9.384 80.776 9.4 80.296 9.432C79.816 9.464 79.32 9.464 78.808 9.432C78.264 9.4 77.736 9.384 77.224 9.384C76.744 9.384 76.232 9.384 75.688 9.384H74.68C74.424 9.384 74.248 9.448 74.152 9.576C74.056 9.704 74.056 9.848 74.152 10.008C74.312 10.36 74.568 10.584 74.92 10.68C75.304 10.744 75.688 10.808 76.072 10.872C76.296 10.904 76.52 10.952 76.744 11.016C76.968 11.048 77.16 11.144 77.32 11.304C77.512 11.432 77.656 11.64 77.752 11.928C77.88 12.216 77.944 12.6 77.944 13.08V39.864C77.944 40.664 77.928 41.304 77.896 41.784C77.864 42.264 77.752 42.648 77.56 42.936C77.368 43.224 77.08 43.448 76.696 43.608C76.312 43.768 75.784 43.912 75.112 44.04C74.792 44.104 74.632 44.264 74.632 44.52C74.664 44.744 74.84 44.872 75.16 44.904C77.112 45 79.048 45.032 80.968 45C82.92 44.968 84.856 44.952 86.776 44.952C87 44.952 87.16 44.904 87.256 44.808C87.384 44.68 87.4 44.536 87.304 44.376C87.144 44.024 86.904 43.832 86.584 43.8C86.264 43.736 85.88 43.688 85.432 43.656C85.176 43.624 84.888 43.592 84.568 43.56C84.248 43.496 84.008 43.384 83.848 43.224C83.784 43.16 83.704 42.952 83.608 42.6C83.512 42.248 83.416 41.864 83.32 41.448C83.256 41.032 83.192 40.648 83.128 40.296C83.064 39.912 83.032 39.656 83.032 39.528V11.928C83.48 11.768 83.96 11.624 84.472 11.496C84.984 11.368 85.512 11.304 86.056 11.304C87.176 11.304 88.168 11.576 89.032 12.12C89.928 12.632 90.68 13.304 91.288 14.136C91.896 14.968 92.36 15.912 92.68 16.968C93 18.024 93.16 19.08 93.16 20.136C93.16 22.472 92.488 24.296 91.144 25.608C89.832 26.92 87.992 27.576 85.624 27.576C85.464 27.576 85.304 27.576 85.144 27.576C84.984 27.576 84.824 27.56 84.664 27.528C84.504 27.528 84.376 27.592 84.28 27.72C84.184 27.816 84.12 27.96 84.088 28.152C84.056 28.312 84.056 28.472 84.088 28.632C84.152 28.76 84.264 28.84 84.424 28.872C85.288 29.128 86.216 29.256 87.208 29.256C88.712 29.256 90.104 28.936 91.384 28.296C92.664 27.624 93.768 26.76 94.696 25.704C95.624 24.616 96.344 23.4 96.856 22.056C97.368 20.712 97.624 19.336 97.624 17.928ZM129.646 42.168L129.358 41.352C128.398 41.48 127.438 41.32 126.478 40.872C125.518 40.392 124.574 39.768 123.646 39C122.718 38.232 121.822 37.368 120.958 36.408C120.094 35.448 119.278 34.504 118.51 33.576C118.03 33 117.55 32.456 117.07 31.944C116.622 31.4 116.158 30.888 115.678 30.408C116.222 29.928 116.75 29.4 117.262 28.824C117.806 28.216 118.286 27.576 118.702 26.904C119.15 26.232 119.502 25.528 119.758 24.792C120.046 24.056 120.19 23.32 120.19 22.584C120.19 21.112 119.838 19.944 119.134 19.08C118.462 18.216 117.598 17.56 116.542 17.112C115.486 16.664 114.302 16.376 112.99 16.248C111.71 16.12 110.478 16.056 109.294 16.056C108.942 16.056 108.606 16.072 108.286 16.104C107.998 16.104 107.694 16.104 107.374 16.104H106.366C105.854 16.104 105.374 16.104 104.926 16.104C104.478 16.104 103.998 16.088 103.486 16.056C103.102 16.024 102.718 16.008 102.334 16.008C101.95 16.008 101.582 16.008 101.23 16.008H100.51C100.254 16.008 100.078 16.072 99.9824 16.2C99.8864 16.328 99.9024 16.472 100.03 16.632C100.19 16.888 100.398 17.048 100.654 17.112C100.91 17.176 101.214 17.224 101.566 17.256C101.918 17.288 102.254 17.384 102.574 17.544C102.926 17.704 103.102 18.168 103.102 18.936V38.424C103.102 39.032 103.07 39.528 103.006 39.912C102.974 40.264 102.878 40.536 102.718 40.728C102.558 40.92 102.318 41.064 101.998 41.16C101.71 41.224 101.31 41.288 100.798 41.352C100.51 41.416 100.366 41.576 100.366 41.832C100.398 42.056 100.558 42.184 100.846 42.216C102.478 42.312 104.094 42.376 105.694 42.408C107.326 42.408 108.958 42.408 110.59 42.408C110.878 42.408 111.07 42.312 111.166 42.12C111.262 41.928 111.182 41.768 110.926 41.64C110.67 41.448 110.382 41.336 110.062 41.304C109.774 41.24 109.486 41.192 109.198 41.16C109.038 41.128 108.846 41.112 108.622 41.112C108.43 41.112 108.286 41.08 108.19 41.016C108.126 40.984 108.046 40.856 107.95 40.632C107.886 40.376 107.822 40.104 107.758 39.816C107.694 39.496 107.63 39.208 107.566 38.952C107.534 38.664 107.518 38.456 107.518 38.328V31.992C107.774 31.96 107.934 31.96 107.998 31.992C108.094 31.992 108.27 31.992 108.526 31.992C109.23 31.992 109.998 32.056 110.83 32.184C111.694 32.28 112.398 32.568 112.942 33.048C113.55 33.56 114.126 34.136 114.67 34.776C115.214 35.416 115.758 36.088 116.302 36.792C116.91 37.56 117.534 38.312 118.174 39.048C118.814 39.784 119.502 40.44 120.238 41.016C120.974 41.592 121.79 42.056 122.686 42.408C123.582 42.76 124.59 42.936 125.71 42.936C127.118 42.936 128.43 42.68 129.646 42.168ZM115.678 24.36C115.678 25.992 115.278 27.288 114.478 28.248C113.678 29.208 112.494 29.688 110.926 29.688C110.382 29.688 109.806 29.672 109.198 29.64C108.622 29.608 108.062 29.56 107.518 29.496V17.928C108.222 17.736 108.958 17.64 109.726 17.64C110.622 17.64 111.438 17.832 112.174 18.216C112.91 18.568 113.534 19.048 114.046 19.656C114.59 20.264 114.99 20.984 115.246 21.816C115.534 22.616 115.678 23.464 115.678 24.36ZM142.739 41.64C142.483 41.416 142.211 41.288 141.923 41.256C141.667 41.192 141.363 41.16 141.011 41.16C140.851 41.16 140.675 41.144 140.483 41.112C140.291 41.08 140.147 41.048 140.051 41.016C139.987 40.92 139.907 40.744 139.811 40.488C139.715 40.232 139.635 39.96 139.571 39.672C139.507 39.384 139.443 39.112 139.379 38.856C139.347 38.6 139.331 38.408 139.331 38.28V18.888C139.331 18.12 139.555 17.64 140.003 17.448C140.451 17.256 140.995 17.112 141.635 17.016C141.923 16.952 142.051 16.808 142.019 16.584C142.019 16.36 141.875 16.232 141.587 16.2C140.851 16.136 140.131 16.136 139.427 16.2C138.723 16.264 138.003 16.296 137.267 16.296C136.531 16.296 135.779 16.264 135.011 16.2C134.243 16.136 133.475 16.136 132.707 16.2C132.387 16.232 132.211 16.376 132.179 16.632C132.179 16.856 132.339 16.984 132.659 17.016C133.235 17.08 133.779 17.256 134.291 17.544C134.835 17.8 135.107 18.248 135.107 18.888V38.424C135.107 38.68 135.075 38.968 135.011 39.288C134.979 39.608 134.915 39.928 134.819 40.248C134.723 40.568 134.579 40.84 134.387 41.064C134.227 41.256 134.019 41.352 133.763 41.352C133.699 41.352 133.603 41.384 133.475 41.448C133.379 41.48 133.251 41.464 133.091 41.4C132.803 41.336 132.595 41.464 132.467 41.784C132.339 42.072 132.419 42.264 132.707 42.36C132.931 42.456 133.235 42.52 133.619 42.552C134.035 42.552 134.451 42.536 134.867 42.504C135.315 42.472 135.731 42.44 136.115 42.408C136.499 42.376 136.819 42.36 137.075 42.36L138.899 42.408C139.507 42.44 140.083 42.44 140.627 42.408C141.203 42.376 141.779 42.376 142.355 42.408L142.739 41.64ZM184.525 41.496C184.045 41.272 183.709 41.176 183.517 41.208C183.357 41.208 183.149 41.176 182.893 41.112C182.509 41.048 182.109 40.952 181.693 40.824C181.309 40.696 180.973 40.408 180.685 39.96C180.397 39.576 180.141 38.872 179.917 37.848C179.725 36.824 179.533 35.688 179.341 34.44C179.181 33.192 179.037 31.928 178.909 30.648C178.813 29.336 178.717 28.184 178.621 27.192C178.557 26.744 178.509 26.36 178.477 26.04C178.477 25.72 178.461 25.432 178.429 25.176C178.045 22.072 177.613 18.952 177.133 15.816C177.101 15.624 176.957 15.512 176.701 15.48C176.477 15.416 176.285 15.464 176.125 15.624C175.485 16.552 174.893 17.496 174.349 18.456C173.805 19.384 173.293 20.312 172.813 21.24C172.653 21.528 172.477 21.848 172.285 22.2C172.093 22.552 171.917 22.872 171.757 23.16C171.277 24.088 170.781 25.016 170.269 25.944C169.789 26.84 169.309 27.752 168.829 28.68C168.125 30.024 167.421 31.352 166.717 32.664C166.045 33.976 165.341 35.304 164.605 36.648C164.317 36.168 164.013 35.608 163.693 34.968C163.373 34.328 162.877 33.4 162.205 32.184C161.341 30.648 160.413 28.968 159.421 27.144C158.429 25.32 157.469 23.608 156.541 22.008C155.613 20.376 154.765 18.968 153.997 17.784C153.261 16.6 152.701 15.848 152.317 15.528C152.125 15.4 151.917 15.368 151.693 15.432C151.501 15.496 151.389 15.624 151.357 15.816C151.325 16.008 151.293 16.28 151.261 16.632C151.229 16.952 151.181 17.32 151.117 17.736C150.989 18.76 150.845 20.008 150.685 21.48C150.525 22.952 150.349 24.504 150.157 26.136C149.965 27.768 149.757 29.416 149.533 31.08C149.341 32.712 149.149 34.2 148.957 35.544C148.765 36.888 148.589 38.024 148.429 38.952C148.269 39.88 148.141 40.44 148.045 40.632C147.917 40.888 147.725 41.048 147.469 41.112C147.213 41.144 146.941 41.176 146.653 41.208C146.397 41.208 146.141 41.24 145.885 41.304C145.597 41.368 145.453 41.528 145.453 41.784C145.485 42.008 145.645 42.136 145.933 42.168C147.309 42.232 148.669 42.28 150.013 42.312C151.389 42.344 152.765 42.36 154.141 42.36C154.429 42.36 154.605 42.248 154.669 42.024C154.733 41.8 154.637 41.64 154.381 41.544C153.837 41.288 153.453 41.144 153.229 41.112C153.037 41.048 152.861 40.984 152.701 40.92C152.509 40.856 152.349 40.808 152.221 40.776C152.125 40.712 152.045 40.616 151.981 40.488C151.949 40.36 151.917 40.168 151.885 39.912C151.885 39.656 151.885 39.304 151.885 38.856V38.088C151.885 36.456 151.981 34.808 152.173 33.144C152.397 31.48 152.637 29.816 152.893 28.152C152.989 27.544 153.085 26.952 153.181 26.376C153.277 25.8 153.357 25.192 153.421 24.552C153.709 25.032 153.933 25.448 154.093 25.8C154.285 26.152 154.461 26.488 154.621 26.808C154.781 27.128 154.941 27.464 155.101 27.816C155.293 28.168 155.517 28.6 155.773 29.112C156.317 30.168 156.877 31.272 157.453 32.424C158.061 33.544 158.701 34.664 159.373 35.784C160.045 36.904 160.733 38.008 161.437 39.096C162.173 40.152 162.941 41.144 163.741 42.072C163.901 42.2 164.061 42.264 164.221 42.264C164.413 42.232 164.557 42.136 164.653 41.976C165.165 41.08 165.661 40.184 166.141 39.288C166.621 38.392 167.101 37.48 167.581 36.552C168.669 34.504 169.741 32.472 170.797 30.456C171.885 28.408 173.037 26.392 174.253 24.408C174.285 24.952 174.317 25.4 174.349 25.752C174.413 26.104 174.461 26.456 174.493 26.808C174.557 27.128 174.621 27.48 174.685 27.864C174.749 28.216 174.813 28.664 174.877 29.208C175.101 30.968 175.309 32.728 175.501 34.488C175.693 36.248 175.789 37.992 175.789 39.72C175.789 40.04 175.773 40.36 175.741 40.68C175.741 40.968 175.709 41.224 175.645 41.448C175.581 41.608 175.597 41.752 175.693 41.88C175.789 41.976 175.933 42.024 176.125 42.024C178.845 42.216 181.581 42.312 184.333 42.312L184.525 41.496ZM205.403 37.56C205.435 37.464 205.387 37.384 205.259 37.32C205.163 37.224 205.051 37.176 204.923 37.176C204.795 37.144 204.667 37.16 204.539 37.224C204.411 37.256 204.331 37.32 204.299 37.416C204.011 38.536 203.435 39.352 202.571 39.864C201.707 40.344 200.763 40.584 199.739 40.584C198.907 40.584 198.027 40.424 197.099 40.104C196.171 39.784 195.451 39.272 194.939 38.568V29.256H195.563C195.947 29.256 196.427 29.256 197.003 29.256C197.579 29.256 198.155 29.272 198.731 29.304C199.339 29.336 199.883 29.4 200.363 29.496C200.843 29.56 201.163 29.656 201.323 29.784C201.419 29.848 201.515 30.008 201.611 30.264C201.739 30.52 201.851 30.792 201.947 31.08C201.979 31.24 201.979 31.368 201.947 31.464C201.947 31.528 202.139 31.672 202.523 31.896C202.683 32.024 202.859 32.056 203.051 31.992C203.243 31.928 203.355 31.816 203.387 31.656C203.451 31.208 203.515 30.792 203.579 30.408C203.643 30.024 203.707 29.64 203.771 29.256C203.835 28.84 203.883 28.344 203.915 27.768C203.979 27.192 204.043 26.696 204.107 26.28C204.139 26.12 204.075 25.992 203.915 25.896C203.787 25.768 203.611 25.736 203.387 25.8C203.195 25.864 202.987 26.008 202.763 26.232C202.571 26.456 202.347 26.632 202.091 26.76H202.139C201.851 26.856 201.579 26.968 201.323 27.096C201.067 27.192 200.859 27.24 200.699 27.24H194.939V18.072H195.803C196.059 18.072 196.315 18.072 196.571 18.072C196.827 18.04 197.067 18.024 197.291 18.024C197.547 18.024 197.787 18.024 198.011 18.024C198.267 17.992 198.523 17.976 198.779 17.976C199.227 17.976 199.675 18.008 200.123 18.072C200.571 18.136 200.971 18.264 201.323 18.456C201.675 18.616 201.963 18.856 202.187 19.176C202.411 19.496 202.539 19.928 202.571 20.472C202.603 20.728 202.779 20.856 203.099 20.856C203.419 20.856 203.611 20.744 203.675 20.52C203.739 20.328 203.787 20.136 203.819 19.944C203.851 19.752 203.899 19.544 203.963 19.32C204.091 18.808 204.219 18.296 204.347 17.784C204.475 17.272 204.571 16.712 204.635 16.104C204.667 15.944 204.603 15.816 204.443 15.72C204.283 15.624 204.091 15.608 203.867 15.672C203.419 15.832 202.539 15.944 201.227 16.008C199.915 16.072 198.459 16.104 196.859 16.104C195.739 16.104 194.635 16.104 193.547 16.104C192.459 16.072 191.451 16.04 190.523 16.008C189.947 16.008 189.419 16.008 188.939 16.008C188.491 15.976 188.123 15.96 187.835 15.96C187.547 15.96 187.355 16.056 187.259 16.248C187.163 16.44 187.243 16.6 187.499 16.728C187.755 16.888 188.011 17 188.267 17.064C188.555 17.128 188.827 17.192 189.083 17.256C189.435 17.32 189.755 17.448 190.043 17.64C190.363 17.8 190.523 18.152 190.523 18.696V38.376C190.523 39.24 190.379 39.944 190.091 40.488C189.803 41 189.211 41.272 188.315 41.304C188.027 41.304 187.867 41.448 187.835 41.736C187.835 41.992 187.979 42.136 188.267 42.168C189.387 42.232 190.523 42.264 191.675 42.264C192.827 42.232 193.979 42.216 195.131 42.216C195.643 42.216 196.155 42.216 196.667 42.216C197.179 42.184 197.691 42.168 198.203 42.168C198.427 42.168 198.811 42.184 199.355 42.216C199.931 42.216 200.523 42.232 201.131 42.264C201.771 42.264 202.363 42.264 202.907 42.264C203.451 42.264 203.819 42.232 204.011 42.168L204.395 41.976L205.403 37.56Z" fill="#036328"/>
<path d="M228.437 34.584C228.437 33.624 228.261 32.76 227.909 31.992C227.589 31.224 227.141 30.536 226.565 29.928C225.989 29.32 225.317 28.808 224.549 28.392C223.813 27.976 223.029 27.64 222.197 27.384C223.029 26.648 223.797 25.784 224.501 24.792C225.237 23.8 225.605 22.744 225.605 21.624C225.605 20.536 225.285 19.608 224.645 18.84C224.037 18.072 223.269 17.448 222.341 16.968C221.413 16.488 220.421 16.152 219.365 15.96C218.309 15.736 217.349 15.624 216.485 15.624C215.877 15.624 215.269 15.656 214.661 15.72C214.053 15.752 213.461 15.8 212.885 15.864C212.277 15.928 211.701 15.976 211.157 16.008C210.613 16.04 210.053 16.056 209.477 16.056C209.285 16.056 209.077 16.056 208.853 16.056C208.661 16.024 208.453 15.992 208.229 15.96C207.941 15.928 207.765 16.056 207.701 16.344C207.669 16.6 207.797 16.744 208.085 16.776C208.309 16.808 208.581 16.872 208.901 16.968C209.221 17.064 209.509 17.208 209.765 17.4C210.021 17.56 210.245 17.752 210.437 17.976C210.629 18.2 210.725 18.456 210.725 18.744V38.232C210.725 38.808 210.693 39.272 210.629 39.624C210.565 39.976 210.453 40.264 210.293 40.488C210.133 40.68 209.893 40.84 209.573 40.968C209.253 41.064 208.853 41.176 208.373 41.304C208.085 41.368 207.957 41.528 207.989 41.784C208.021 42.04 208.197 42.168 208.517 42.168C209.381 42.168 210.309 42.184 211.301 42.216C212.325 42.216 213.253 42.232 214.085 42.264C215.013 42.296 215.925 42.312 216.821 42.312C217.749 42.312 218.677 42.312 219.605 42.312V42.264H219.701C219.957 42.264 220.181 42.264 220.373 42.264C220.597 42.264 220.789 42.232 220.949 42.168H220.901C221.861 42.008 222.789 41.72 223.685 41.304C224.581 40.856 225.381 40.312 226.085 39.672C226.789 39.032 227.349 38.28 227.765 37.416C228.213 36.552 228.437 35.608 228.437 34.584ZM221.381 22.104C221.381 23.64 220.949 24.824 220.085 25.656C219.253 26.456 218.117 26.824 216.677 26.76L215.189 26.712V17.736C215.829 17.576 216.421 17.496 216.965 17.496C218.245 17.496 219.301 17.928 220.133 18.792C220.965 19.656 221.381 20.76 221.381 22.104ZM224.261 35.4C224.261 36.168 224.117 36.872 223.829 37.512C223.573 38.152 223.205 38.712 222.725 39.192C222.245 39.64 221.685 39.992 221.045 40.248C220.405 40.504 219.717 40.632 218.981 40.632C218.661 40.632 218.277 40.584 217.829 40.488C217.413 40.36 216.997 40.2 216.581 40.008C216.197 39.784 215.861 39.512 215.573 39.192C215.317 38.872 215.189 38.504 215.189 38.088V28.728L216.053 28.68C217.045 28.616 218.021 28.712 218.981 28.968C219.973 29.224 220.853 29.64 221.621 30.216C222.421 30.792 223.061 31.512 223.541 32.376C224.021 33.24 224.261 34.248 224.261 35.4ZM259.303 42.072V41.208C258.599 41.144 257.911 41 257.239 40.776C256.567 40.552 256.039 40.072 255.655 39.336C254.439 37.128 253.319 34.856 252.295 32.52C251.303 30.152 250.311 27.816 249.319 25.512L247.207 20.568V20.616C247.143 20.52 247.079 20.392 247.015 20.232C246.951 20.04 246.871 19.832 246.775 19.608V19.656C246.615 19.304 246.439 18.904 246.247 18.456C246.055 18.008 245.847 17.592 245.623 17.208C245.399 16.792 245.175 16.424 244.951 16.104C244.727 15.784 244.503 15.576 244.279 15.48C243.927 15.384 243.687 15.448 243.559 15.672C242.599 17.912 241.639 20.152 240.679 22.392C239.751 24.632 238.823 26.888 237.895 29.16C237.255 30.696 236.583 32.28 235.879 33.912C235.207 35.512 234.551 37.08 233.911 38.616C233.751 38.904 233.527 39.224 233.239 39.576C232.983 39.928 232.695 40.248 232.375 40.536C232.055 40.792 231.719 40.984 231.367 41.112C231.015 41.24 230.679 41.256 230.359 41.16L230.167 42.024L238.615 42.168C238.935 42.168 239.095 42.04 239.095 41.784C239.127 41.496 238.983 41.336 238.663 41.304C238.343 41.24 237.975 41.16 237.559 41.064C237.143 40.936 236.935 40.696 236.935 40.344C236.935 40.056 237.031 39.576 237.223 38.904C237.447 38.2 237.719 37.448 238.039 36.648C238.359 35.848 238.679 35.048 238.999 34.248C239.319 33.448 239.607 32.792 239.863 32.28H247.591C248.263 33.784 248.903 35.224 249.511 36.6C250.119 37.976 250.743 39.416 251.383 40.92L250.951 41.448C250.759 41.608 250.695 41.768 250.759 41.928C250.855 42.088 251.031 42.168 251.287 42.168C251.863 42.2 252.423 42.232 252.967 42.264C253.511 42.264 254.071 42.264 254.647 42.264C255.447 42.264 256.231 42.248 256.999 42.216C257.767 42.184 258.535 42.136 259.303 42.072ZM246.727 30.216H240.631C241.239 28.776 241.751 27.432 242.167 26.184C242.615 24.904 243.111 23.56 243.655 22.152L246.727 30.216ZM278.104 35.304C278.104 34.472 277.912 33.688 277.528 32.952C277.144 32.216 276.648 31.512 276.04 30.84C275.432 30.168 274.744 29.544 273.976 28.968C273.208 28.36 272.456 27.768 271.72 27.192C271.144 26.744 270.552 26.28 269.944 25.8C269.336 25.32 268.776 24.824 268.264 24.312C267.784 23.768 267.384 23.224 267.064 22.68C266.776 22.136 266.632 21.592 266.632 21.048C266.632 20.44 266.76 19.896 267.016 19.416C267.272 18.936 267.608 18.536 268.024 18.216C268.44 17.896 268.904 17.656 269.416 17.496C269.96 17.304 270.504 17.208 271.048 17.208C271.592 17.208 272.12 17.288 272.632 17.448C273.176 17.608 273.656 17.848 274.072 18.168C274.52 18.488 274.872 18.872 275.128 19.32C275.416 19.768 275.56 20.296 275.56 20.904C275.56 21.128 275.672 21.272 275.896 21.336C276.152 21.4 276.376 21.352 276.568 21.192C276.952 20.776 277.16 20.248 277.192 19.608C277.256 18.936 277.288 18.28 277.288 17.64V16.296C277.352 16.04 277.208 15.88 276.856 15.816C275.544 15.528 274.2 15.384 272.824 15.384C271.96 15.384 270.92 15.496 269.704 15.72C268.52 15.912 267.384 16.248 266.296 16.728C265.208 17.208 264.28 17.848 263.512 18.648C262.776 19.448 262.408 20.44 262.408 21.624C262.408 22.36 262.584 23.08 262.936 23.784C263.32 24.456 263.816 25.144 264.424 25.848C265.032 26.52 265.704 27.192 266.44 27.864C267.208 28.536 267.976 29.192 268.744 29.832C269.416 30.408 270.072 30.984 270.712 31.56C271.384 32.136 271.976 32.728 272.488 33.336C273.032 33.944 273.464 34.536 273.784 35.112C274.136 35.688 274.312 36.264 274.312 36.84C274.312 37.48 274.136 38.04 273.784 38.52C273.432 39 272.984 39.4 272.44 39.72C271.896 40.04 271.304 40.296 270.664 40.488C270.056 40.648 269.496 40.728 268.984 40.728C268.376 40.728 267.752 40.648 267.112 40.488C266.504 40.328 265.944 40.088 265.432 39.768C264.92 39.416 264.504 39 264.184 38.52C263.896 38.008 263.784 37.416 263.848 36.744V36.168C263.848 36.04 263.784 35.944 263.656 35.88C263.56 35.816 263.448 35.784 263.32 35.784C263.192 35.784 263.064 35.816 262.936 35.88C262.808 35.912 262.744 35.992 262.744 36.12C262.712 36.664 262.616 37.112 262.456 37.464C262.328 37.816 262.216 38.168 262.12 38.52C262.056 38.84 262.024 39.16 262.024 39.48C262.024 40.152 262.2 40.712 262.552 41.16C262.936 41.576 263.384 41.912 263.896 42.168C264.44 42.424 265.016 42.6 265.624 42.696C266.232 42.792 266.792 42.84 267.304 42.84C268.328 42.84 269.464 42.68 270.712 42.36C271.992 42.008 273.176 41.512 274.264 40.872C275.352 40.232 276.264 39.448 277 38.52C277.736 37.592 278.104 36.52 278.104 35.304ZM298.309 37.56C298.341 37.464 298.293 37.384 298.165 37.32C298.069 37.224 297.957 37.176 297.829 37.176C297.701 37.144 297.573 37.16 297.445 37.224C297.317 37.256 297.237 37.32 297.205 37.416C296.917 38.536 296.341 39.352 295.477 39.864C294.613 40.344 293.669 40.584 292.645 40.584C291.813 40.584 290.933 40.424 290.005 40.104C289.077 39.784 288.357 39.272 287.845 38.568V29.256H288.469C288.853 29.256 289.333 29.256 289.909 29.256C290.485 29.256 291.061 29.272 291.637 29.304C292.245 29.336 292.789 29.4 293.269 29.496C293.749 29.56 294.069 29.656 294.229 29.784C294.325 29.848 294.421 30.008 294.517 30.264C294.645 30.52 294.757 30.792 294.853 31.08C294.885 31.24 294.885 31.368 294.853 31.464C294.853 31.528 295.045 31.672 295.429 31.896C295.589 32.024 295.765 32.056 295.957 31.992C296.149 31.928 296.261 31.816 296.293 31.656C296.357 31.208 296.421 30.792 296.485 30.408C296.549 30.024 296.613 29.64 296.677 29.256C296.741 28.84 296.789 28.344 296.821 27.768C296.885 27.192 296.949 26.696 297.013 26.28C297.045 26.12 296.981 25.992 296.821 25.896C296.693 25.768 296.517 25.736 296.293 25.8C296.101 25.864 295.893 26.008 295.669 26.232C295.477 26.456 295.253 26.632 294.997 26.76H295.045C294.757 26.856 294.485 26.968 294.229 27.096C293.973 27.192 293.765 27.24 293.605 27.24H287.845V18.072H288.709C288.965 18.072 289.221 18.072 289.477 18.072C289.733 18.04 289.973 18.024 290.197 18.024C290.453 18.024 290.693 18.024 290.917 18.024C291.173 17.992 291.429 17.976 291.685 17.976C292.133 17.976 292.581 18.008 293.029 18.072C293.477 18.136 293.877 18.264 294.229 18.456C294.581 18.616 294.869 18.856 295.093 19.176C295.317 19.496 295.445 19.928 295.477 20.472C295.509 20.728 295.685 20.856 296.005 20.856C296.325 20.856 296.517 20.744 296.581 20.52C296.645 20.328 296.693 20.136 296.725 19.944C296.757 19.752 296.805 19.544 296.869 19.32C296.997 18.808 297.125 18.296 297.253 17.784C297.381 17.272 297.477 16.712 297.541 16.104C297.573 15.944 297.509 15.816 297.349 15.72C297.189 15.624 296.997 15.608 296.773 15.672C296.325 15.832 295.445 15.944 294.133 16.008C292.821 16.072 291.365 16.104 289.765 16.104C288.645 16.104 287.541 16.104 286.453 16.104C285.365 16.072 284.357 16.04 283.429 16.008C282.853 16.008 282.325 16.008 281.845 16.008C281.397 15.976 281.029 15.96 280.741 15.96C280.453 15.96 280.261 16.056 280.165 16.248C280.069 16.44 280.149 16.6 280.405 16.728C280.661 16.888 280.917 17 281.173 17.064C281.461 17.128 281.733 17.192 281.989 17.256C282.341 17.32 282.661 17.448 282.949 17.64C283.269 17.8 283.429 18.152 283.429 18.696V38.376C283.429 39.24 283.285 39.944 282.997 40.488C282.709 41 282.117 41.272 281.221 41.304C280.933 41.304 280.773 41.448 280.741 41.736C280.741 41.992 280.885 42.136 281.173 42.168C282.293 42.232 283.429 42.264 284.581 42.264C285.733 42.232 286.885 42.216 288.037 42.216C288.549 42.216 289.061 42.216 289.573 42.216C290.085 42.184 290.597 42.168 291.109 42.168C291.333 42.168 291.717 42.184 292.261 42.216C292.837 42.216 293.429 42.232 294.037 42.264C294.677 42.264 295.269 42.264 295.813 42.264C296.357 42.264 296.725 42.232 296.917 42.168L297.301 41.976L298.309 37.56Z" fill="#903B13"/>
<path fill-rule="evenodd" clip-rule="evenodd" d="M48.768 17.184C48.768 7.296 41.088 0 22.368 0H0V3.072H0.0219992L0.0219994 7.784L8.25375 7.784C8.25526 7.87574 8.256 7.96907 8.256 8.064V56.784H8.272V62.784L1.44 62.784H25.152L16.922 62.784V55.784H16.9316C16.9073 55.4547 16.896 55.1006 16.896 54.72V33.6C19.392 33.984 22.848 34.272 25.632 34.272C42.72 34.272 48.768 25.152 48.768 17.184Z" fill="#036328"/>
<path d="M46.772 28.2842C57.772 36.7842 61.272 62.7842 40.2251 66.2842H0.271973" stroke="#903B13" stroke-width="8"/>
<path fill-rule="evenodd" clip-rule="evenodd" d="M35.0501 9.48892C30.7544 5.8826 23.7896 5.8826 19.4938 9.48892C15.198 13.0953 15.198 18.9423 19.4938 22.5486L26.6737 28.5761C27.0041 28.8535 27.5398 28.8535 27.8703 28.5761L35.0501 22.5486C39.3459 18.9423 39.3459 13.0953 35.0501 9.48892ZM27.272 18.9657C29.297 18.9657 30.9386 17.5875 30.9386 15.8875C30.9386 14.1875 29.297 12.8093 27.272 12.8093C25.2469 12.8093 23.6053 14.1875 23.6053 15.8875C23.6053 17.5875 25.2469 18.9657 27.272 18.9657Z" fill="#191C23"/>
</svg>
