<svg xmlns="http://www.w3.org/2000/svg" fill="none" width="300" height="71" viewBox="0 0 300 71">
  <path fill="#036328" d="M97.6 18c0-2-.3-3.6-1-4.7s-1.6-2-2.8-2.6a11 11 0 0 0-3.8-1c-1.4-.2-2.9-.3-4.4-.3H74.7c-.3 0-.5 0-.5.2-.1.1-.1.2 0 .4.1.4.4.6.7.7l1.2.2.6.1c.3 0 .5.1.6.3.2.1.4.3.5.6l.1 1.2v28.7c0 .5-.1.8-.3 1.1-.2.3-.5.5-.9.7l-1.6.4c-.3.1-.5.3-.5.5s.2.4.6.4a88.3 88.3 0 0 0 12 0c.2-.2.2-.4.1-.5-.2-.4-.4-.6-.7-.6l-1.2-.1-.8-.1-.8-.4-.2-.6a30.2 30.2 0 0 1-.6-3V11.8l1.5-.4 1.6-.2c1 0 2 .3 3 .8.8.5 1.6 1.2 2.2 2a10.9 10.9 0 0 1 1.9 6c0 2.4-.7 4.2-2 5.5a7.5 7.5 0 0 1-5.6 2h-.9l-.4.1-.2.5v.4c0 .2.2.2.3.3a9.8 9.8 0 0 0 10.3-3.2 12.4 12.4 0 0 0 3-7.8Zm32 24.2-.2-.8c-1 0-2 0-3-.5a15 15 0 0 1-2.8-1.9 90.3 90.3 0 0 1-6.6-7l-1.3-1.6a18.5 18.5 0 0 0 3-3.5c.5-.7.8-1.4 1-2.1a6 6 0 0 0 .5-2.2c0-1.5-.4-2.7-1-3.5a6.4 6.4 0 0 0-2.7-2 12 12 0 0 0-3.5-.9 37.2 37.2 0 0 0-4.7-.1h-3.4a23.2 23.2 0 0 1-2.6 0h-1.8l-.5.1c-.1.1-.1.3 0 .4.2.3.4.4.7.5l.9.2c.3 0 .7 0 1 .2.3.2.5.7.5 1.4v21l-.4.8c-.1.2-.4.4-.7.5-.3 0-.7 0-1.2.2-.3 0-.4.2-.4.4 0 .3.2.4.4.4l4.9.2h4.9c.3 0 .5 0 .6-.3 0-.2 0-.3-.3-.5-.2-.2-.5-.3-.8-.3a8.1 8.1 0 0 0-1.5-.2h-.4l-.3-.5a32 32 0 0 1-.4-2.3V32h1c.7 0 1.5 0 2.3.2.9 0 1.6.4 2.1.8l1.8 1.8a55.7 55.7 0 0 1 3.5 4.2 15 15 0 0 0 2 2c.8.6 1.6 1 2.5 1.4a10 10 0 0 0 7-.2Zm-14-17.8c0 1.6-.3 2.9-1.1 3.8-.8 1-2 1.5-3.6 1.5a33 33 0 0 1-3.4-.2V17.9c.7-.2 1.5-.3 2.2-.3 1 0 1.7.2 2.5.6.7.4 1.3.8 1.8 1.5.6.6 1 1.3 1.2 2.1.3.8.5 1.7.5 2.6Zm27.1 17.2c-.2-.2-.5-.3-.8-.3l-.9-.1a3.2 3.2 0 0 1-1-.2s0-.3-.2-.5a32 32 0 0 0-.5-2.2V18.9c0-.8.3-1.3.7-1.5l1.6-.4c.3 0 .5-.2.4-.4 0-.2-.1-.4-.4-.4h-2.2a23.9 23.9 0 0 1-4.4 0h-2.3c-.3 0-.5.2-.5.4 0 .3.1.4.5.4.5 0 1 .3 1.6.5.5.3.8.7.8 1.4v20.4l-.3 1c0 .3-.2.5-.4.8l-.6.3h-.7c-.3 0-.5 0-.6.4-.2.3 0 .5.2.6l1 .2a16.3 16.3 0 0 0 2.4-.2h6.3l.3-.8Zm41.8-.1-1-.3h-.6l-1.2-.4a2 2 0 0 1-1-.8c-.3-.4-.6-1.1-.8-2.2a106.4 106.4 0 0 1-1.5-12.6l-1.3-9.4c0-.2-.1-.3-.4-.3l-.6.1a37.9 37.9 0 0 0-3.8 6.6 142.4 142.4 0 0 1-2 3.7 213.8 213.8 0 0 0-3.6 6.8 163 163 0 0 1-2 4l-1-1.7a83.1 83.1 0 0 0-4.3-7.9 215 215 0 0 0-5.4-9.3c-.7-1.2-1.3-2-1.7-2.3a.7.7 0 0 0-.6 0c-.2 0-.3.1-.3.3l-.1.8-.2 1.1a240.1 240.1 0 0 0-1 8.4 298.4 298.4 0 0 1-2 14.5c-.2.3-.4.4-.6.5a60.1 60.1 0 0 1-1.6.2c-.3 0-.4.2-.4.5 0 .2.1.3.4.4a180 180 0 0 0 8.2.2c.3 0 .5-.2.6-.4 0-.2 0-.4-.3-.5a5 5 0 0 0-1.2-.4l-.5-.2-.5-.1a.7.7 0 0 1-.2-.3l-.1-.6v-1.8a43.1 43.1 0 0 1 1-10 210.6 210.6 0 0 1 .5-3.5l.7 1.2a32 32 0 0 1 1.7 3.3 308.6 308.6 0 0 1 3.6 6.7l2 3.3 2.3 3 .5.2c.2 0 .4-.2.5-.3a112.4 112.4 0 0 0 2.9-5.4l3.2-6.1c1-2 2.2-4.1 3.5-6a43.7 43.7 0 0 0 .6 4.7 296.5 296.5 0 0 1 .9 10.5 9.6 9.6 0 0 1-.2 1.7v.5l.5.1c2.7.2 5.5.3 8.2.3l.2-.8Zm20.9-4-.1-.2a.5.5 0 0 0-.4-.1h-.4l-.2.2c-.3 1.1-.9 2-1.7 2.5-.9.4-1.8.7-2.9.7-.8 0-1.7-.2-2.6-.5-1-.3-1.6-.8-2.2-1.5v-9.3H197a31.1 31.1 0 0 1 3.4.2c.4 0 .8.2 1 .3l.2.5c.1.2.3.5.3.8v.4l.6.4c.2.1.4.2.6 0 .1 0 .3 0 .3-.2l.2-1.3.2-1.1.1-1.5.2-1.5c0-.2 0-.3-.2-.4-.1-.1-.3-.2-.5-.1-.2 0-.4.2-.6.4l-.7.6-.8.3-.6.1h-5.8v-9.1H198l.8-.1h1.3l1.2.5c.4.1.7.4.9.7.2.3.3.7.4 1.3 0 .2.2.4.5.4s.5-.2.6-.4l.1-.6.2-.6.3-1.5c.2-.5.3-1 .3-1.7 0-.2 0-.3-.2-.4a.7.7 0 0 0-.5 0l-2.7.3-4.3.1h-8l-1-.1c-.4 0-.5 0-.6.2-.1.2 0 .4.2.5l.8.4a32 32 0 0 1 1.7.5c.4.2.5.6.5 1.1v19.7c0 .8-.1 1.5-.4 2-.3.6-.9.9-1.8.9-.3 0-.4.1-.5.4 0 .3.2.4.5.5a59.7 59.7 0 0 0 6.8 0h1.6a24.6 24.6 0 0 1 4.4 0H204l.4-.2 1-4.4Z"/>
  <path fill="#903B13" d="M228.4 34.6a6.8 6.8 0 0 0-1.9-4.7 8 8 0 0 0-2-1.5c-.7-.4-1.5-.8-2.3-1 .8-.8 1.6-1.6 2.3-2.6.7-1 1.1-2 1.1-3.2 0-1-.3-2-1-2.8a7 7 0 0 0-2.3-1.8 14 14 0 0 0-7.7-1.2 30.7 30.7 0 0 0-3.4.2h-3c-.3 0-.4 0-.5.3 0 .3.1.4.4.5.2 0 .5 0 .8.2.3 0 .6.2.9.4l.6.6c.2.2.3.5.3.7v20.9c-.1.4-.2.7-.4.9l-.7.5-1.2.3c-.3 0-.4.2-.4.5 0 .2.2.4.5.4a86.7 86.7 0 0 1 5.6 0l2.7.1H220.4l.5-.1a10.6 10.6 0 0 0 5.2-2.5 7.3 7.3 0 0 0 2.3-5.1Zm-7-12.5c0 1.5-.5 2.7-1.3 3.6-.8.8-2 1.1-3.4 1h-1.5v-9l1.8-.2c1.2 0 2.3.4 3.1 1.3.9.9 1.3 2 1.3 3.3Zm2.9 13.3a5 5 0 0 1-.5 2.1 5 5 0 0 1-1 1.7 5.3 5.3 0 0 1-6.2.8l-1-.8c-.3-.3-.4-.7-.4-1.1v-9.4h.9c1 0 2 0 2.9.3a7.5 7.5 0 0 1 4.5 3.4c.5.8.8 1.8.8 3Zm35 6.7v-.9c-.7 0-1.4-.2-2-.4-.7-.2-1.3-.7-1.6-1.5a84.2 84.2 0 0 1-3.4-6.8l-3-7-2-5v.1c-.2 0-.2-.2-.3-.4a61 61 0 0 1-1.4-3l-.6-1.1-.7-.6c-.4-.1-.6 0-.7.2l-3 6.7a1466.5 1466.5 0 0 0-6.7 16.2l-.7 1-.8 1-1 .5c-.4.1-.7.2-1 0l-.2 1h8.4c.3 0 .5 0 .5-.3s-.1-.5-.4-.5l-1.1-.2c-.5-.2-.7-.4-.7-.8l.3-1.4a33.3 33.3 0 0 1 1.8-4.7l.9-2h7.7a1145.8 1145.8 0 0 1 3.8 8.7l-.4.5c-.2.2-.3.4-.2.5 0 .2.2.3.5.3h3.3a56.5 56.5 0 0 0 4.7-.1Zm-12.6-11.9h-6l1.5-4 1.5-4 3 8Zm31.4 5.1a5 5 0 0 0-.6-2.3c-.4-.8-.9-1.5-1.5-2.2l-2-1.8a513.6 513.6 0 0 0-5.7-4.7c-.5-.5-1-1-1.2-1.6a3.5 3.5 0 0 1 1-4.5c.3-.3.8-.5 1.3-.7a4.9 4.9 0 0 1 3.2 0 4.3 4.3 0 0 1 2.5 1.8c.3.5.5 1 .5 1.6 0 .2 0 .4.3.4.3.1.5 0 .7-.1.4-.4.6-1 .6-1.6v-3.3c.2-.3 0-.4-.3-.5a18.8 18.8 0 0 0-7.2 0 14 14 0 0 0-3.4 1c-1 .4-2 1-2.8 1.8-.7.8-1 1.8-1 3 0 .8 0 1.5.4 2.2l1.5 2a30 30 0 0 0 4.3 4 108.3 108.3 0 0 1 3.8 3.5c.5.6 1 1.2 1.3 1.8.3.6.5 1.2.5 1.7 0 .7-.2 1.2-.5 1.7-.4.5-.8.9-1.4 1.2a6.6 6.6 0 0 1-7 0c-.5-.3-.9-.7-1.2-1.2a3 3 0 0 1-.4-1.8v-.5l-.1-.3a.6.6 0 0 0-.4-.1h-.4l-.2.3c0 .6 0 1-.2 1.4l-.4 1v1c0 .7.1 1.2.5 1.7.3.4.8.7 1.3 1l1.7.5a10.8 10.8 0 0 0 5.1-.3c1.3-.4 2.5-.9 3.6-1.5 1-.7 2-1.5 2.7-2.4a5 5 0 0 0 1.1-3.2Zm20.2 2.3-.1-.3a.5.5 0 0 0-.4-.1h-.4l-.2.2c-.3 1.1-.9 2-1.7 2.5-.9.4-1.8.7-2.9.7-.8 0-1.7-.2-2.6-.5-1-.3-1.6-.8-2.2-1.5v-9.3H290a31.1 31.1 0 0 1 3.4.2c.4 0 .8.2 1 .3l.2.5.4.8v.4l.5.4c.2.1.4.2.6 0 .1 0 .3 0 .3-.2l.2-1.3.2-1.1.1-1.5.2-1.5c0-.2 0-.3-.2-.4-.1-.1-.3-.2-.5-.1-.2 0-.4.2-.6.4l-.7.6-.8.3-.6.1h-5.8v-9.1H291l.8-.1h1.3l1.2.5c.4.1.7.4.9.7.2.3.3.7.4 1.3 0 .2.2.4.5.4s.5-.2.6-.4l.1-.6.2-.6.4-1.5.2-1.7c0-.2 0-.3-.2-.4a.7.7 0 0 0-.5 0l-2.7.3-4.3.1h-8l-1-.1c-.3 0-.5 0-.6.2-.1.2 0 .4.2.5l.8.4a32 32 0 0 1 1.7.5c.4.2.5.6.5 1.1v19.7c0 .8-.1 1.5-.4 2-.3.6-.9.9-1.8.9-.3 0-.4.1-.5.4 0 .3.2.4.5.5a59.7 59.7 0 0 0 6.8 0h1.6a24.6 24.6 0 0 1 4.4 0H297l.4-.2 1-4.4Z"/>
  <path fill="#036328" fill-rule="evenodd" d="M48.8 17.2C48.8 7.3 41 0 22.4 0H0v7.8h8.3v55H1.4h23.8-8.3V33.6c2.5.4 6 .7 8.7.7 17.1 0 23.2-9.1 23.2-17.1Z" clip-rule="evenodd"/>
  <path stroke="#903B13" stroke-width="8" d="M46.8 28.3c11 8.5 14.5 34.5-6.6 38H.2"/>
  <path fill="#191C23" fill-rule="evenodd" d="M35 9.5a12.5 12.5 0 0 0-15.5 0 8.2 8.2 0 0 0 0 13l7.2 6c.3.4.8.4 1.2 0l7.2-6a8.2 8.2 0 0 0 0-13ZM27.4 19c2 0 3.6-1.4 3.6-3.1 0-1.7-1.6-3-3.6-3s-3.7 1.3-3.7 3 1.6 3 3.7 3Z" clip-rule="evenodd"/>
</svg>
